<?xml version="1.0" standalone="no"?>
<!DOCTYPE svg PUBLIC "-//W3C//DTD SVG 20010904//EN"
 "http://www.w3.org/TR/2001/REC-SVG-20010904/DTD/svg10.dtd">
<svg version="1.0" xmlns="http://www.w3.org/2000/svg"
 width="512.000000pt" height="512.000000pt" viewBox="0 0 512.000000 512.000000"
 preserveAspectRatio="xMidYMid meet">

<g transform="translate(0.000000,512.000000) scale(0.100000,-0.100000)"
fill="#fff" stroke="#000">
<path d="M2380 4954 c-537 -51 -997 -242 -1386 -578 -441 -380 -717 -883 -810
-1478 -25 -158 -25 -518 0 -676 74 -473 259 -879 561 -1230 382 -445 916 -731
1515 -814 123 -17 478 -16 600 1 698 96 1291 459 1679 1026 465 680 549 1542
224 2304 -181 425 -491 794 -888 1056 -329 217 -705 349 -1100 385 -102 9
-313 11 -395 4z m222 -965 c12 -7 137 -111 277 -232 l256 -221 5 126 c5 122 6
127 35 164 42 52 89 74 154 74 67 0 129 -33 163 -87 22 -37 23 -45 26 -323 l4
-285 228 -195 c126 -107 234 -205 239 -218 17 -37 13 -69 -13 -99 l-24 -28
-204 -5 -203 -5 -5 -743 -5 -744 -28 -24 -28 -24 -304 0 c-214 0 -312 4 -330
12 -52 24 -55 42 -55 361 l0 293 -26 53 c-84 168 -324 168 -408 0 l-26 -53 0
-293 c0 -319 -3 -337 -55 -361 -18 -8 -116 -12 -330 -12 l-304 0 -28 24 -28
24 -5 744 -5 743 -203 5 -204 5 -24 28 c-26 31 -30 70 -11 103 12 21 1347
1171 1384 1193 24 14 59 14 85 0z"/>
</g>
</svg>
