<?xml version="1.0" standalone="no"?>
<!DOCTYPE svg PUBLIC "-//W3C//DTD SVG 20010904//EN"
 "http://www.w3.org/TR/2001/REC-SVG-20010904/DTD/svg10.dtd">
<svg version="1.0" xmlns="http://www.w3.org/2000/svg"
 width="512.000000pt" height="512.000000pt" viewBox="0 0 512.000000 512.000000"
 preserveAspectRatio="xMidYMid meet">

<g transform="translate(0.000000,512.000000) scale(0.100000,-0.100000)"
fill="#fff" stroke="none">
<path d="M2370 5113 c-379 -36 -661 -116 -980 -278 -378 -193 -717 -497 -965
-865 -42 -63 -114 -191 -160 -285 -168 -340 -248 -661 -262 -1040 -15 -426 73
-832 263 -1214 133 -269 271 -459 488 -677 221 -220 412 -357 681 -489 188
-92 309 -137 500 -185 500 -126 1002 -102 1490 71 149 53 407 182 540 271 365
243 667 578 866 963 181 348 271 694 286 1090 15 426 -73 832 -263 1214 -124
250 -263 447 -458 648 -216 224 -428 378 -711 518 -296 146 -572 225 -900 255
-102 9 -333 11 -415 3z m1204 -1299 c345 -89 551 -445 456 -790 -42 -155 -57
-174 -464 -580 -347 -347 -376 -373 -446 -407 -98 -47 -184 -67 -295 -67 -278
0 -514 170 -606 439 -11 30 -19 69 -19 88 0 100 99 155 181 100 27 -18 39 -38
59 -94 47 -134 110 -206 227 -261 52 -24 70 -27 163 -27 171 0 163 -6 568 398
293 292 347 351 374 404 97 196 15 439 -180 535 -63 31 -72 33 -177 33 -160 0
-186 -14 -384 -209 -167 -164 -190 -178 -255 -156 -41 13 -64 37 -76 78 -17
63 0 89 178 264 143 141 178 170 242 201 41 20 100 43 130 51 75 20 247 20
324 0z m-1074 -684 c132 -44 259 -142 336 -258 41 -60 94 -199 94 -245 0 -90
-102 -147 -181 -100 -30 18 -48 48 -69 118 -20 65 -56 119 -115 173 -127 117
-330 134 -475 42 -25 -16 -197 -181 -382 -367 -400 -401 -393 -391 -393 -568
0 -104 2 -114 32 -176 39 -80 111 -150 191 -187 51 -24 69 -27 167 -27 160 0
188 15 380 204 82 82 160 154 172 160 90 46 202 -55 163 -148 -6 -16 -87 -103
-178 -193 -143 -140 -178 -169 -242 -200 -104 -51 -186 -70 -300 -69 -181 1
-322 60 -450 190 -134 136 -185 272 -178 476 4 103 9 130 34 196 17 41 47 100
67 130 20 30 197 214 394 410 392 389 413 406 575 449 97 27 263 22 358 -10z"/>
</g>
</svg>
