<?xml version="1.0" standalone="no"?>
<!DOCTYPE svg PUBLIC "-//W3C//DTD SVG 20010904//EN"
 "http://www.w3.org/TR/2001/REC-SVG-20010904/DTD/svg10.dtd">
<svg version="1.0" xmlns="http://www.w3.org/2000/svg"
 width="512.000000pt" height="512.000000pt" viewBox="0 0 512.000000 512.000000"
 preserveAspectRatio="xMidYMid meet">

<g transform="translate(0.000000,512.000000) scale(0.100000,-0.100000)"
fill="#fff" stroke="none">
<path d="M2315 5109 c-478 -49 -944 -234 -1323 -525 -121 -94 -383 -359 -473
-479 -582 -778 -681 -1793 -260 -2650 132 -269 281 -476 501 -696 207 -207
420 -360 685 -490 196 -96 314 -139 509 -189 311 -78 205 -74 1769 -77 l1398
-4 -4 1398 c-3 1551 1 1448 -72 1748 -47 196 -105 353 -201 545 -381 760
-1082 1271 -1931 1405 -118 19 -472 27 -598 14z m450 -1169 c298 -43 504 -173
604 -383 55 -114 75 -219 68 -366 -10 -239 -90 -377 -366 -626 -194 -176 -242
-253 -263 -427 l-11 -88 -264 0 -263 0 0 88 c0 178 42 343 116 459 20 32 110
130 200 218 188 184 214 225 222 350 8 131 -37 233 -121 274 -59 29 -172 29
-226 1 -77 -39 -128 -123 -146 -237 l-7 -43 -315 0 -316 0 7 73 c25 257 131
449 315 572 107 70 221 110 401 138 53 9 298 6 365 -3z m-68 -2175 c71 -32
126 -84 161 -150 35 -67 37 -186 5 -256 -28 -63 -92 -125 -162 -158 -50 -23
-68 -26 -166 -26 -102 0 -114 2 -168 30 -112 56 -177 158 -177 274 0 110 46
198 132 255 108 72 259 84 375 31z"/>
</g>
</svg>
