<?xml version="1.0" standalone="no"?>
<!DOCTYPE svg PUBLIC "-//W3C//DTD SVG 20010904//EN"
 "http://www.w3.org/TR/2001/REC-SVG-20010904/DTD/svg10.dtd">
<svg version="1.0" xmlns="http://www.w3.org/2000/svg"
 width="512.000000pt" height="512.000000pt" viewBox="0 0 512.000000 512.000000"
 preserveAspectRatio="xMidYMid meet">

<g transform="translate(0.000000,512.000000) scale(0.100000,-0.100000)"
fill="#000000" stroke="none">
<path d="M2327 4565 c-315 -51 -581 -174 -816 -377 -263 -227 -457 -561 -518
-893 l-17 -93 -101 -4 c-76 -3 -112 -9 -150 -27 -93 -41 -163 -129 -184 -229
-15 -71 -15 -693 0 -764 21 -103 100 -198 195 -234 43 -17 77 -19 266 -19
l218 0 27 28 28 27 3 576 2 576 -32 32 c-18 18 -39 35 -46 37 -11 4 -10 21 6
89 106 443 406 799 818 972 671 280 1446 -7 1772 -657 75 -152 148 -395 120
-404 -7 -2 -28 -19 -46 -37 l-32 -32 2 -575 3 -575 24 -26 c13 -14 37 -28 53
-31 l29 -7 -6 -66 c-30 -313 -142 -561 -346 -763 -141 -140 -310 -241 -494
-294 -110 -32 -115 -32 -115 3 0 93 -70 200 -158 244 -44 21 -59 23 -217 23
-153 0 -175 -2 -215 -21 -54 -26 -104 -74 -133 -128 -30 -58 -30 -174 0 -232
29 -54 79 -102 133 -128 42 -20 61 -21 280 -20 267 0 358 12 528 69 537 180
906 655 948 1221 l7 92 91 4 c118 6 179 31 245 104 85 92 86 101 86 534 0 433
-1 442 -86 534 -68 75 -126 99 -254 104 l-101 4 -17 93 c-114 620 -618 1123
-1257 1256 -128 27 -418 34 -543 14z"/>
<path d="M2395 4150 c-440 -70 -797 -365 -943 -780 -59 -170 -64 -224 -60
-745 4 -440 6 -475 26 -551 142 -541 596 -897 1142 -897 553 0 1020 374 1146
918 17 72 19 128 19 580 l0 500 -27 98 c-59 216 -152 378 -303 532 -224 228
-484 341 -800 350 -77 2 -167 0 -200 -5z m-75 -2160 c145 -123 333 -125 474
-4 21 18 51 36 67 39 66 15 139 -59 124 -126 -22 -97 -255 -218 -422 -219
-175 -1 -378 98 -418 204 -16 41 -16 46 0 79 20 42 68 69 110 62 16 -3 46 -19
65 -35z"/>
</g>
</svg>
